# Blender 5.0.1
# www.blender.org
mtllib cuerpo.mtl
o Cuerpo
v -2.358564 2.665442 1.462046
v 1.470042 2.665442 1.462046
v -2.358564 0.000000 1.462046
v 1.470042 0.000000 1.462046
v 1.482917 2.665442 1.651143
v 1.482917 0.000000 1.651143
v -2.054663 2.474936 1.462046
v 1.189983 2.474936 1.462046
v -2.054663 0.235134 1.462046
v 1.189983 0.235134 1.462046
v -2.054663 2.474936 -1.158785
v 1.189983 2.474936 -1.158785
v -2.054663 0.235134 -1.158786
v 1.189983 0.235134 -1.158786
v -2.358564 2.665442 -1.462046
v 1.189983 2.665442 -1.462046
v -2.358564 0.000000 -1.462046
v 1.189983 0.000000 -1.462046
v 1.482917 2.518590 1.651143
v 1.482917 1.783308 1.651143
v 1.500001 2.608914 1.702166
v 1.500001 0.051570 1.702166
v 1.500001 2.545119 1.702166
v 1.500001 1.783308 1.702166
v 2.107991 2.518590 1.651143
v 2.211748 2.343504 1.651143
v 2.107991 2.545119 1.702166
v 2.211748 2.343504 1.702166
v 2.230849 2.431535 1.651143
v 2.196263 2.489897 1.651143
v 2.230849 2.431535 1.702166
v 2.196263 2.516426 1.702166
v 2.358564 0.000000 1.462046
v 2.358564 0.000000 1.651143
v 2.358564 0.000000 -1.462046
v 2.358564 2.665442 1.462046
v 2.358564 2.665442 1.651143
v 2.358564 2.665442 -1.462046
v 2.315360 2.608914 1.702166
v 2.315360 0.051570 1.702166
v 2.020814 1.672507 1.702166
v 1.815285 1.673656 1.702166
v 1.669142 1.529138 1.702166
v 1.667992 1.323609 1.702166
v 1.812511 1.177466 1.702166
v 2.018039 1.176316 1.702166
v 2.164183 1.320835 1.702166
v 2.165332 1.526364 1.702166
v 2.165332 0.767045 1.702166
v 2.164183 0.561516 1.702166
v 2.018039 0.416998 1.702166
v 1.812511 0.418147 1.702166
v 1.667992 0.564291 1.702166
v 1.669142 0.769820 1.702166
v 1.815285 0.914338 1.702166
v 2.020814 0.913189 1.702166
v 2.107608 0.854490 1.702166
v 1.918164 1.693523 1.702166
v 1.727840 1.615932 1.702166
v 1.648126 1.426488 1.702166
v 1.725717 1.236164 1.702166
v 1.915161 1.156450 1.702166
v 2.105484 1.234041 1.702166
v 2.185199 1.423485 1.702166
v 2.107608 1.613809 1.702166
v 2.185199 0.664166 1.702166
v 2.105484 0.474722 1.702166
v 1.915161 0.397132 1.702166
v 1.725717 0.476846 1.702166
v 1.648126 0.667170 1.702166
v 1.727840 0.856614 1.702166
v 1.918164 0.934204 1.702166
v 2.152843 1.325606 1.689570
v 2.153940 1.521719 1.689570
v 2.172896 1.423554 1.689570
v -2.054663 2.237077 1.193747
v -2.054663 0.472993 1.193747
v -2.054663 2.237077 -0.890486
v -2.054663 0.472993 -0.890486
v -2.268600 2.059434 0.993370
v -2.268600 0.650636 0.993370
v -2.268600 2.059434 -0.690109
v -2.268600 0.650636 -0.690109
v -1.951499 2.389534 -1.462046
v 0.861347 2.389534 -1.462046
v -1.951499 0.222856 -1.462046
v 0.861347 0.222856 -1.462046
v -1.791321 2.254598 -1.633721
v 0.701169 2.254598 -1.633721
v -1.791321 0.357792 -1.633721
v 0.701169 0.357792 -1.633721
v 1.482917 0.000000 1.651143
v 1.482917 0.000000 1.651143
v 1.470042 0.000000 1.462046
v 1.470042 0.000000 1.462046
v 1.470042 0.000000 1.462046
v -2.358564 2.665442 1.462046
v -2.358564 0.000000 1.462046
v 1.470042 2.665442 1.462046
v 1.470042 2.665442 1.462046
v 1.470042 2.665442 1.462046
v 1.482917 1.783308 1.651143
v 1.482917 1.783308 1.651143
v 1.482917 1.783308 1.651143
v 1.482917 2.665442 1.651143
v 1.482917 2.665442 1.651143
v -2.054663 2.474936 1.462046
v -2.054663 2.474936 1.462046
v -2.054663 0.235134 1.462046
v -2.054663 0.235134 1.462046
v 1.189983 2.474936 1.462046
v 1.189983 2.474936 1.462046
v 1.189983 0.235134 1.462046
v 1.189983 0.235134 1.462046
v -2.054663 2.474936 -1.158785
v -2.054663 2.474936 -1.158785
v -2.054663 0.235134 -1.158786
v -2.054663 0.235134 -1.158786
v 1.189983 2.474936 -1.158785
v 1.189983 2.474936 -1.158785
v 1.189983 0.235134 -1.158786
v 1.189983 0.235134 -1.158786
v -2.358564 2.665442 -1.462046
v -2.358564 0.000000 -1.462046
v 1.482917 2.518590 1.651143
v 1.482917 2.518590 1.651143
v 1.482917 2.518590 1.651143
v 1.500001 1.783308 1.702166
v 1.500001 1.783308 1.702166
v 1.500001 0.051570 1.702166
v 1.500001 0.051570 1.702166
v 1.500001 2.545119 1.702166
v 1.500001 2.545119 1.702166
v 1.500001 2.608914 1.702166
v 1.500001 2.608914 1.702166
v 2.196263 2.489897 1.651143
v 2.107991 2.518590 1.651143
v 2.211748 2.343504 1.651143
v 2.107991 2.545119 1.702166
v 2.211748 2.343504 1.702166
v 2.196263 2.516426 1.702166
v 2.230849 2.431535 1.651143
v 2.230849 2.431535 1.702166
v 2.358564 0.000000 1.651143
v 2.358564 0.000000 1.462046
v 2.358564 0.000000 1.462046
v 2.358564 2.665442 1.651143
v 2.358564 2.665442 1.462046
v 2.358564 2.665442 1.462046
v 2.315360 2.608914 1.702166
v 2.315360 2.608914 1.702166
v 2.315360 0.051570 1.702166
v 2.315360 0.051570 1.702166
v 2.185199 1.423485 1.702166
v 2.164183 1.320835 1.702166
v 2.165332 1.526364 1.702166
v -2.054663 2.237077 1.193747
v -2.054663 0.472993 1.193747
v -2.054663 2.237077 -0.890486
v -2.054663 0.472993 -0.890486
v -2.268600 2.059434 0.993370
v -2.268600 0.650636 0.993370
v -2.268600 2.059434 -0.690109
v -2.268600 0.650636 -0.690109
v -1.951499 2.389534 -1.462046
v -1.951499 0.222856 -1.462046
v 0.861347 2.389534 -1.462046
v 0.861347 0.222856 -1.462046
v -1.791321 2.254598 -1.633721
v -1.791321 0.357792 -1.633721
v 0.701169 2.254598 -1.633721
v 0.701169 0.357792 -1.633721
vn -0.9977 -0.0000 0.0679
vn -0.0000 -0.0000 1.0000
vn -0.0000 1.0000 -0.0000
vn -1.0000 -0.0000 -0.0000
vn 1.0000 -0.0000 -0.0000
vn -0.0000 -1.0000 -0.0000
vn -0.0000 -0.0000 -1.0000
vn -0.9483 -0.0000 0.3175
vn -0.1460 -0.8777 0.4564
vn -0.0000 -0.8872 0.4613
vn -0.5981 0.7776 0.1939
vn -0.8478 0.5304 0.0039
vn -0.5971 0.7769 0.1999
vn -0.5783 -0.7239 0.3764
vn -0.6985 -0.6559 0.2862
vn -0.9907 -0.1295 0.0429
vn -0.8479 0.5302 -0.0000
vn -0.9871 -0.1600 -0.0000
vn -0.0000 -0.9382 0.3461
vn 0.9677 -0.0000 0.2519
vn -0.0000 0.9304 0.3666
vn -0.0000 0.9457 0.3251
vn -0.0000 0.6700 0.7423
vn 0.7632 -0.0000 0.6462
vn -0.0000 -0.7033 0.7109
vn -0.7154 0.0040 0.6987
vn -0.7074 0.1448 0.6918
vn -0.7090 -0.1369 0.6918
vn 0.6836 -0.0000 0.7299
vn 0.6388 0.7693 -0.0000
vn 0.6388 -0.7693 -0.0000
vn 0.6836 -0.0000 -0.7299
vn -0.4576 -0.4399 -0.7727
vn 0.4223 -0.4783 -0.7700
vn 0.4576 -0.4399 -0.7727
vn 0.4223 0.4783 -0.7700
vn 0.4576 0.4399 -0.7727
vn -0.4223 0.4783 -0.7700
vn -0.4223 -0.4783 -0.7700
vn -0.4576 0.4399 -0.7727
vn -0.1333 -0.8793 0.4572
vn -0.0000 -0.9525 0.3046
vn 0.9698 -0.0000 0.2438
vn 0.6388 -0.7694 -0.0000
vt 0.157884 0.344105
vt 0.290767 0.328827
vt 0.290767 0.344105
vt 0.106348 0.044707
vt 0.092152 0.328827
vt 0.092153 0.020210
vt 0.787239 0.272751
vt 0.982529 0.011205
vt 0.982529 0.272751
vt 0.273247 0.044707
vt 0.290768 0.020209
vt 0.273246 0.306252
vt 0.545465 0.272751
vt 0.787239 0.453298
vt 0.545465 0.453298
vt 0.982529 0.453298
vt 0.568565 0.468012
vt 0.588745 0.638927
vt 0.567257 0.659362
vt 0.787239 0.714843
vt 0.982529 0.714843
vt 0.315188 0.714489
vt 0.533076 0.428447
vt 0.533076 0.737064
vt 0.533652 0.400380
vt 0.315764 0.114338
vt 0.533652 0.091763
vt 0.566638 0.018658
vt 0.765253 0.254365
vt 0.566638 0.254365
vt 0.897585 0.945565
vt 0.873232 0.746537
vt 0.898722 0.723619
vt 0.092152 0.344105
vt 0.103095 0.344105
vt 0.610371 0.830669
vt 0.410271 0.825805
vt 0.617686 0.826294
vt 0.328998 0.828196
vt 0.317931 0.833049
vt 0.310218 0.829263
vt 0.348825 0.913893
vt 0.340945 0.916223
vt 0.332662 0.903882
vt 0.324204 0.832585
vt 0.412440 0.831681
vt 0.330844 0.916097
vt 0.335873 0.913217
vt 0.340619 0.920909
vt 0.351021 0.918502
vt 0.315764 0.020140
vt 0.533652 0.020140
vt 0.547742 0.090725
vt 0.268029 0.070473
vt 0.109273 0.258876
vt 0.109273 0.070473
vt 0.268029 0.258876
vt 0.109273 0.271060
vt 0.315188 0.808687
vt 0.987606 0.946280
vt 0.989114 0.724159
vt 0.533076 0.808687
vt 0.547166 0.738102
vt 0.547166 0.808687
vt 0.320502 0.930848
vt 0.313075 0.937730
vt 0.616986 0.937730
vt 0.609882 0.930887
vt 0.326729 0.905228
vt 0.568447 0.869086
vt 0.570824 0.881654
vt 0.484434 0.881943
vt 0.511924 0.869577
vt 0.509700 0.882215
vt 0.425959 0.894936
vt 0.423375 0.882372
vt 0.431910 0.859239
vt 0.425498 0.869925
vt 0.475179 0.858769
vt 0.528359 0.851603
vt 0.518476 0.858823
vt 0.518818 0.905442
vt 0.466004 0.912424
vt 0.475782 0.905245
vt 0.561767 0.858443
vt 0.551795 0.851393
vt 0.561965 0.905081
vt 0.568536 0.894325
vt 0.432743 0.905540
vt 0.442754 0.912599
vt 0.465139 0.851786
vt 0.540066 0.849037
vt 0.528766 0.912507
vt 0.454452 0.914989
vt 0.441700 0.851985
vt 0.453382 0.849354
vt 0.540457 0.914927
vt 0.552108 0.912313
vt 0.482260 0.894542
vt 0.512124 0.894806
vt 0.481955 0.869371
vt 0.465229 0.910464
vt 0.443473 0.910620
vt 0.454413 0.912867
vt 0.751582 0.639039
vt 0.733258 0.507265
vt 0.752458 0.488447
vt 0.772637 0.659362
vt 0.773945 0.468012
vt 0.589621 0.488336
vt 0.607945 0.620109
vt 0.608343 0.507214
vt 0.732859 0.620160
vt 0.658843 0.926358
vt 0.857730 0.912462
vt 0.872500 0.926922
vt 0.627736 0.944758
vt 0.658614 0.746424
vt 0.627195 0.723602
vt 0.673644 0.760748
vt 0.858120 0.760894
vt 0.673685 0.912113
vt 0.106348 0.306252
vt 0.787239 0.011205
vt 0.315188 0.428447
vt 0.315764 0.400380
vt 0.765253 0.018658
vt 0.547742 0.020140
vt 0.268029 0.271060
s 1
usemtl Material
f 102/1/1 94/2/1 92/3/1
s 0
f 107/4/2 99/5/2 97/6/2
f 121/7/3 110/8/3 113/9/3
f 95/2/2 109/10/2 98/11/2
s 1
f 99/5/2 114/12/2 95/2/2
s 0
f 109/10/2 97/6/2 98/11/2
f 117/13/2 119/14/2 115/15/2
s 1
f 120/14/4 10/9/4 112/16/4
s 0
f 9/17/5 157/18/5 7/19/5
f 116/20/6 8/16/6 108/21/6
f 16/22/3 1/23/3 101/24/3
f 3/25/6 18/26/6 96/27/6
f 123/28/4 3/29/4 1/30/4
f 18/31/7 167/32/7 16/33/7
s 1
f 105/34/1 100/5/1 125/35/1
f 100/5/1 102/1/1 125/35/1
f 130/36/8 103/37/8 93/38/8
f 126/39/8 134/40/8 106/41/8
f 26/42/2 142/43/2 104/37/2
f 137/44/9 133/45/10 127/39/10
f 129/46/11 138/42/12 20/37/13
f 141/47/14 137/44/9 136/48/15
f 19/39/2 30/48/2 25/44/2
f 142/43/2 19/39/2 104/37/2
f 143/49/16 138/42/12 140/50/17
f 143/49/16 136/48/15 29/43/18
s 0
f 35/51/6 96/27/6 18/26/6
s 1
f 145/52/6 6/53/19 4/27/6
s 0
f 38/54/5 146/55/5 35/56/5
s 1
f 148/57/5 34/58/20 33/55/5
s 0
f 101/24/3 38/59/3 16/22/3
f 35/60/7 16/33/7 38/61/7
s 1
f 36/62/3 5/63/21 37/64/22
f 5/41/21 150/65/23 37/66/22
f 34/67/20 151/65/24 152/68/24
f 6/38/19 153/68/25 131/36/25
f 27/69/2 21/40/2 23/45/2
f 39/65/2 27/69/2 32/47/2
f 32/47/2 31/49/2 39/65/2
f 52/70/2 22/36/2 68/71/2
s 0
f 62/72/2 55/73/2 72/74/2
s 1
f 41/75/2 28/50/2 58/76/2
f 59/77/2 42/78/2 24/46/2
s 0
f 61/79/2 54/80/2 71/81/2
f 57/82/2 155/83/2 63/84/2
s 1
f 69/85/2 53/86/2 22/36/2
f 67/87/2 51/88/2 40/68/2
f 65/89/2 156/90/2 28/50/2
s 0
f 54/80/2 44/91/2 70/92/2
f 49/93/2 154/94/2 155/83/2
f 43/95/2 24/46/2 60/96/2
f 66/97/2 50/98/2 40/68/2
f 28/50/2 39/65/2 31/49/2
s 1
f 40/68/2 51/88/2 68/71/2
f 22/36/2 40/68/2 68/71/2
s 0
f 46/99/2 72/74/2 56/100/2
s 1
f 24/46/2 42/78/2 58/76/2
f 28/50/2 24/46/2 58/76/2
f 43/95/2 59/77/2 24/46/2
s 0
f 45/101/2 71/81/2 55/73/2
f 56/100/2 63/84/2 46/99/2
s 1
f 52/70/2 69/85/2 22/36/2
f 50/98/2 67/87/2 40/68/2
f 41/75/2 65/89/2 28/50/2
s 0
f 22/36/2 53/86/2 70/92/2
f 24/46/2 44/91/2 60/96/2
f 156/90/2 154/94/2 39/65/2
f 40/68/2 154/94/2 66/97/2
f 154/94/2 40/68/2 39/65/2
s 1
f 64/94/26 73/102/27 47/83/27
f 64/94/26 74/103/28 75/104/26
s 0
f 24/46/2 70/92/2 44/91/2
f 159/105/29 164/106/29 160/107/29
f 11/108/5 157/18/5 78/105/5
f 11/108/5 79/107/5 13/109/5
f 13/109/5 158/110/5 9/17/5
f 83/106/5 161/111/5 162/112/5
f 160/107/30 81/112/30 77/110/30
f 159/105/31 80/111/31 163/113/31
f 77/110/32 80/111/32 76/18/32
s 1
f 86/114/33 172/115/34 168/116/35
s 0
f 17/117/7 165/118/7 166/114/7
f 16/33/7 165/118/7 15/119/7
f 18/31/7 166/114/7 87/116/7
f 91/115/7 169/120/7 171/121/7
s 1
f 168/116/35 89/121/36 85/32/37
f 86/114/33 88/120/38 90/122/39
f 84/118/40 89/121/36 88/120/38
s 0
f 107/4/2 111/123/2 99/5/2
f 121/7/3 118/124/3 110/8/3
f 95/2/2 114/12/2 109/10/2
s 1
f 99/5/2 111/123/2 114/12/2
s 0
f 109/10/2 107/4/2 97/6/2
f 117/13/2 122/7/2 119/14/2
s 1
f 120/14/4 14/7/4 10/9/4
s 0
f 9/17/5 158/110/5 157/18/5
f 116/20/6 12/14/6 8/16/6
f 16/22/3 123/125/3 1/23/3
f 3/25/6 124/126/6 18/26/6
f 123/28/4 124/127/4 3/29/4
f 18/31/7 87/116/7 167/32/7
s 1
f 100/5/1 94/2/1 102/1/1
f 130/36/8 128/46/8 103/37/8
f 126/39/8 132/45/8 134/40/8
f 137/44/9 139/69/41 133/45/10
f 129/46/11 140/50/17 138/42/12
f 141/47/14 139/69/41 137/44/9
f 142/43/2 30/48/2 19/39/2
f 143/49/16 29/43/18 138/42/12
f 143/49/16 141/47/14 136/48/15
s 0
f 35/51/6 146/52/6 96/27/6
s 1
f 145/52/6 144/128/42 6/53/19
s 0
f 38/54/5 149/57/5 146/55/5
s 1
f 148/57/5 147/129/43 34/58/20
s 0
f 101/24/3 149/62/3 38/59/3
f 35/60/7 18/31/7 16/33/7
s 1
f 36/62/3 2/24/3 5/63/21
f 5/41/21 135/40/23 150/65/23
f 34/67/20 147/66/43 151/65/24
f 6/38/19 144/67/42 153/68/25
f 27/69/2 39/65/2 21/40/2
s 0
f 62/72/2 45/101/2 55/73/2
f 61/79/2 44/91/2 54/80/2
f 57/82/2 49/93/2 155/83/2
f 49/93/2 66/97/2 154/94/2
f 28/50/2 156/90/2 39/65/2
f 46/99/2 62/72/2 72/74/2
f 45/101/2 61/79/2 71/81/2
f 56/100/2 57/82/2 63/84/2
s 1
f 64/94/26 75/104/26 73/102/27
f 64/94/26 48/90/28 74/103/28
s 0
f 24/46/2 22/36/2 70/92/2
f 159/105/29 163/113/29 164/106/29
f 11/108/5 7/19/5 157/18/5
f 11/108/5 78/105/5 79/107/5
f 13/109/5 79/107/5 158/110/5
f 83/106/5 82/113/5 161/111/5
f 160/107/30 164/106/30 81/112/30
f 159/105/44 76/18/44 80/111/44
f 77/110/32 81/112/32 80/111/32
s 1
f 86/114/33 90/122/39 172/115/34
s 0
f 17/117/7 15/119/7 165/118/7
f 16/33/7 167/32/7 165/118/7
f 18/31/7 17/117/7 166/114/7
f 91/115/7 170/122/7 169/120/7
s 1
f 168/116/35 172/115/34 89/121/36
f 86/114/33 84/118/40 88/120/38
f 84/118/40 85/32/37 89/121/36
