# Blender 5.0.1
# www.blender.org
mtllib RuedaDown.mtl
o RuedaDown
v -0.000979 0.217477 0.019055
v -0.000979 0.241448 0.005094
v -0.000979 0.256209 -0.018264
v -0.000979 0.261193 -0.042554
v 0.081557 0.201053 0.019055
v 0.090732 0.223205 0.005094
v 0.096381 0.236843 -0.018264
v 0.098288 0.241448 -0.042554
v 0.151514 0.154288 0.019055
v 0.168481 0.171255 0.005094
v 0.178918 0.181693 -0.018264
v 0.182443 0.185217 -0.042554
v 0.198238 0.084314 0.019055
v 0.220431 0.093507 0.005094
v 0.234069 0.099155 -0.018264
v 0.238673 0.101063 -0.042554
v 0.214621 0.001796 0.019055
v 0.238673 0.001796 0.005094
v 0.253435 0.001796 -0.018264
v 0.258419 0.001796 -0.042554
v 0.198181 -0.080699 0.019055
v 0.220431 -0.089915 0.005094
v 0.234069 -0.095564 -0.018264
v 0.238673 -0.097471 -0.042554
v 0.151433 -0.150616 0.019055
v 0.168481 -0.167663 0.005094
v 0.178919 -0.178101 -0.018264
v 0.182443 -0.181626 -0.042554
v 0.081499 -0.197324 0.019055
v 0.090732 -0.219614 0.005094
v 0.096381 -0.233251 -0.018264
v 0.098288 -0.237856 -0.042554
v -0.000979 -0.213723 0.019055
v -0.000979 -0.237856 0.005094
v -0.000979 -0.252617 -0.018264
v -0.000979 -0.257602 -0.042554
v -0.083457 -0.197324 0.019055
v -0.092689 -0.219614 0.005094
v -0.098338 -0.233251 -0.018264
v -0.100246 -0.237856 -0.042554
v -0.153391 -0.150616 0.019055
v -0.170438 -0.167663 0.005094
v -0.180876 -0.178101 -0.018264
v -0.184400 -0.181626 -0.042554
v -0.200138 -0.080699 0.019055
v -0.222388 -0.089915 0.005094
v -0.236026 -0.095564 -0.018264
v -0.240631 -0.097471 -0.042554
v -0.216579 0.001796 0.019055
v -0.240630 0.001796 0.005094
v -0.255392 0.001796 -0.018264
v -0.260376 0.001796 -0.042554
v -0.200196 0.084314 0.019055
v -0.222388 0.093507 0.005094
v -0.236026 0.099155 -0.018264
v -0.240631 0.101063 -0.042554
v -0.153471 0.154288 0.019055
v -0.170438 0.171255 0.005094
v -0.180876 0.181693 -0.018264
v -0.184400 0.185217 -0.042554
v -0.083514 0.201053 0.019055
v -0.092689 0.223205 0.005094
v -0.098338 0.236843 -0.018264
v -0.100246 0.241448 -0.042554
v 0.001208 0.193984 0.019055
v 0.000600 -0.185570 0.019055
v 0.083555 -0.142568 0.019055
v -0.079551 -0.142964 0.019055
v 0.064404 0.137615 0.019055
v -0.056420 0.141280 0.019055
v 0.089995 -0.000543 0.019055
v -0.083700 -0.000555 0.019055
v 0.050808 -0.180590 0.019055
v -0.048852 -0.180319 0.019055
v 0.034615 0.181038 0.019055
v -0.026296 0.182736 0.019055
v 0.003111 0.124588 0.070158
v 0.003017 0.138740 0.070158
v 0.002743 -0.001559 0.070158
v 0.003075 -0.064927 0.068822
v 0.058279 -0.122538 0.062024
v 0.033195 0.153840 0.070158
v 0.064283 -0.001964 0.070158
v 0.017340 0.171905 0.070158
v -0.052374 -0.123238 0.062002
v -0.026921 0.155301 0.070158
v -0.058924 -0.002069 0.070158
v 0.003198 -0.076080 0.058184
v -0.011300 0.172370 0.070158
v 0.001203 0.176914 0.070158
v 0.003421 -0.129315 0.029792
v 0.044890 -0.126094 0.050714
v 0.046598 -0.144348 0.031096
v -0.040081 -0.144661 0.031091
v -0.038085 -0.126557 0.050650
v 0.002281 -0.172750 0.023338
v 0.042012 -0.158281 0.024459
v -0.037383 -0.158368 0.024462
v 0.247692 0.112002 -0.020585
v 0.246542 -0.093527 -0.020585
v 0.100399 -0.238045 -0.020585
v -0.105130 -0.236895 -0.020585
v -0.249648 -0.090752 -0.020585
v -0.248499 0.114777 -0.020585
v -0.102355 0.259295 -0.020585
v 0.103173 0.258146 -0.020585
v 0.189967 0.199447 -0.020585
v 0.267558 0.009124 -0.020585
v 0.187844 -0.180321 -0.020585
v -0.002480 -0.257911 -0.020585
v -0.191924 -0.178197 -0.020585
v -0.269515 0.012127 -0.020585
v -0.189801 0.201571 -0.020585
v 0.000523 0.279162 -0.020585
v 0.236299 0.107358 -0.033181
v 0.235202 -0.088755 -0.033181
v 0.095754 -0.226652 -0.033181
v -0.100359 -0.225555 -0.033181
v -0.238256 -0.086107 -0.033181
v -0.237159 0.110005 -0.033181
v -0.097711 0.247902 -0.033181
v 0.098402 0.246806 -0.033181
v 0.181219 0.190797 -0.033181
v 0.255255 0.009192 -0.033181
v 0.179193 -0.171573 -0.033181
v -0.002411 -0.245608 -0.033181
v -0.183176 -0.169546 -0.033181
v -0.257212 0.012058 -0.033181
v -0.181150 0.192823 -0.033181
v 0.000454 0.266859 -0.033181
v 0.081557 0.201053 0.019055
v -0.000979 0.217477 0.019055
v 0.151514 0.154288 0.019055
v 0.198238 0.084314 0.019055
v 0.214621 0.001796 0.019055
v 0.198181 -0.080699 0.019055
v 0.151433 -0.150616 0.019055
v 0.081499 -0.197324 0.019055
v -0.000979 -0.213723 0.019055
v -0.083457 -0.197324 0.019055
v -0.153391 -0.150616 0.019055
v -0.200138 -0.080699 0.019055
v -0.216579 0.001796 0.019055
v -0.200196 0.084314 0.019055
v -0.153471 0.154288 0.019055
v -0.083514 0.201053 0.019055
v 0.058279 -0.122538 0.062024
v 0.083555 -0.142568 0.019055
v 0.083555 -0.142568 0.019055
v -0.079551 -0.142964 0.019055
v -0.079551 -0.142964 0.019055
v -0.083700 -0.000555 0.019055
v 0.089995 -0.000543 0.019055
v -0.056420 0.141280 0.019055
v 0.064404 0.137615 0.019055
v -0.048852 -0.180319 0.019055
v 0.050808 -0.180590 0.019055
v -0.026296 0.182736 0.019055
v 0.034615 0.181038 0.019055
v -0.052374 -0.123238 0.062002
v 0.001208 0.193984 0.019055
v 0.003075 -0.064927 0.068822
v 0.000600 -0.185570 0.019055
vn -0.0000 0.9305 0.3662
vn 0.3749 0.9050 0.2010
vn -0.0000 0.9796 0.2010
vn -0.0000 0.5033 0.8641
vn 0.2713 0.6549 0.7053
vn -0.0000 0.7089 0.7053
vn 0.3561 0.8597 0.3662
vn 0.1926 0.4649 0.8642
vn 0.5012 0.5012 0.7054
vn 0.6580 0.6580 0.3662
vn 0.6927 0.6927 0.2010
vn 0.3556 0.3555 0.8644
vn 0.6547 0.2712 0.7055
vn 0.8597 0.3561 0.3662
vn 0.9050 0.3749 0.2010
vn 0.7085 -0.0000 0.7057
vn 0.9305 -0.0000 0.3662
vn 0.9796 -0.0000 0.2010
vn 0.4643 0.1922 0.8646
vn 0.5020 -0.0001 0.8649
vn 0.6544 -0.2711 0.7059
vn 0.8597 -0.3561 0.3662
vn 0.9050 -0.3749 0.2010
vn 0.6927 -0.6927 0.2010
vn 0.4633 -0.1920 0.8652
vn 0.5007 -0.5008 0.7061
vn 0.6580 -0.6580 0.3662
vn 0.3543 -0.3544 0.8654
vn 0.2709 -0.6542 0.7062
vn 0.3561 -0.8597 0.3662
vn 0.3749 -0.9050 0.2010
vn 0.1916 -0.4628 0.8655
vn -0.0000 -0.7080 0.7062
vn -0.0000 -0.9305 0.3662
vn -0.0000 -0.9796 0.2010
vn -0.3749 -0.9050 0.2010
vn -0.1916 -0.4628 0.8655
vn -0.2709 -0.6542 0.7062
vn -0.3561 -0.8597 0.3662
vn -0.3543 -0.3544 0.8654
vn -0.5007 -0.5008 0.7061
vn -0.6580 -0.6580 0.3662
vn -0.6927 -0.6927 0.2010
vn -0.4633 -0.1920 0.8652
vn -0.6544 -0.2711 0.7059
vn -0.8597 -0.3561 0.3662
vn -0.9050 -0.3749 0.2010
vn -0.9305 -0.0000 0.3662
vn -0.9796 -0.0000 0.2010
vn -0.5020 -0.0001 0.8649
vn -0.7085 -0.0000 0.7057
vn -0.4643 0.1922 0.8646
vn -0.6547 0.2712 0.7055
vn -0.8597 0.3561 0.3662
vn -0.9050 0.3749 0.2010
vn -0.3556 0.3555 0.8644
vn -0.5012 0.5012 0.7054
vn -0.6580 0.6580 0.3662
vn -0.6927 0.6927 0.2010
vn -0.3561 0.8597 0.3662
vn -0.3749 0.9050 0.2010
vn -0.1926 0.4649 0.8642
vn -0.2713 0.6549 0.7053
vn -0.0000 -0.0000 1.0000
vn 0.6946 -0.0592 0.7169
vn 0.8869 0.0486 0.4594
vn 0.5506 0.0167 0.8346
vn 0.8546 0.3058 0.4197
vn 0.5329 0.2960 0.7927
vn 0.5972 0.7391 0.3117
vn 0.3384 0.5423 0.7690
vn -0.0167 0.6532 0.7570
vn -0.3464 0.5332 0.7718
vn -0.0000 -0.0105 0.9999
vn 0.0003 -0.0539 0.9985
vn -0.3764 -0.6096 0.6977
vn 0.0010 -0.4267 0.9044
vn 0.0143 -0.6383 0.7697
vn -0.5579 0.0178 0.8297
vn -0.6841 -0.0510 0.7276
vn -0.5366 0.3060 0.7864
vn -0.8909 0.0527 0.4512
vn -0.8397 -0.0245 0.5426
vn -0.8568 0.3230 0.4020
vn 0.2465 -0.7012 0.6690
vn 0.0058 -0.6360 0.7717
vn 0.3728 -0.6082 0.7008
vn -0.5896 0.7479 0.3049
vn -0.0113 0.9525 0.3045
vn 0.0794 -0.2732 0.9587
vn -0.0121 -0.2410 0.9704
vn -0.0735 -0.2796 0.9573
vn -0.2573 -0.6976 0.6687
vn 0.2344 -0.5982 0.7663
vn -0.0013 -0.6259 0.7799
vn 0.1115 -0.2035 0.9727
vn -0.0202 -0.2990 0.9540
vn -0.2204 -0.5833 0.7818
vn -0.1008 -0.1880 0.9770
vn 0.0028 -0.6902 0.7237
vn -0.6624 -0.2701 0.6987
vn -0.7154 0.0040 0.6987
vn -0.5087 -0.5030 0.6987
vn -0.0040 -0.7154 0.6987
vn 0.2701 -0.6624 0.6987
vn 0.2775 0.6594 0.6987
vn 0.0040 0.7154 0.6987
vn -0.6594 0.2774 0.6987
vn -0.5030 0.5087 0.6987
vn -0.2774 -0.6594 0.6987
vn 0.5087 0.5030 0.6987
vn 0.6624 0.2701 0.6987
vn -0.2701 0.6624 0.6987
vn 0.7154 -0.0040 0.6987
vn 0.6594 -0.2775 0.6987
vn 0.5030 -0.5087 0.6987
vn -0.6594 0.2775 0.6987
vn -0.0000 -0.5008 0.8656
vn 0.8533 -0.0387 0.5200
vt 0.591996 0.748141
vt 0.607577 0.745181
vt 0.592742 0.752390
vt 0.590465 0.739414
vt 0.603410 0.738405
vt 0.591215 0.743719
vt 0.605526 0.741902
vt 0.601406 0.734950
vt 0.612253 0.729195
vt 0.615266 0.731437
vt 0.618135 0.733531
vt 0.609334 0.726987
vt 0.616987 0.717432
vt 0.620491 0.718245
vt 0.623815 0.719008
vt 0.617258 0.704581
vt 0.620777 0.703903
vt 0.624117 0.703257
vt 0.613566 0.716647
vt 0.613829 0.705251
vt 0.612860 0.692568
vt 0.615929 0.690495
vt 0.618831 0.688526
vt 0.608857 0.676802
vt 0.609866 0.694612
vt 0.604564 0.683194
vt 0.606753 0.679892
vt 0.602458 0.686481
vt 0.593060 0.677407
vt 0.593988 0.673208
vt 0.594940 0.669249
vt 0.592203 0.681540
vt 0.579615 0.676664
vt 0.578822 0.672201
vt 0.578062 0.667852
vt 0.562874 0.675822
vt 0.569553 0.686158
vt 0.567370 0.682645
vt 0.565087 0.679124
vt 0.561679 0.694724
vt 0.558618 0.692499
vt 0.555476 0.690299
vt 0.552490 0.688253
vt 0.557513 0.705200
vt 0.554039 0.704474
vt 0.550487 0.703748
vt 0.547126 0.703052
vt 0.550457 0.718153
vt 0.547126 0.718862
vt 0.557384 0.716686
vt 0.553964 0.717400
vt 0.561431 0.727227
vt 0.558498 0.729293
vt 0.555504 0.731427
vt 0.552665 0.733446
vt 0.568825 0.735215
vt 0.566838 0.738408
vt 0.564784 0.741679
vt 0.562815 0.744757
vt 0.577331 0.747645
vt 0.576527 0.751501
vt 0.578830 0.739572
vt 0.578116 0.743558
vt 0.593941 0.689681
vt 0.598776 0.707996
vt 0.571448 0.694172
vt 0.573343 0.713174
vt 0.580405 0.730513
vt 0.598127 0.726435
vt 0.594738 0.732978
vt 0.585732 0.735013
vt 0.590156 0.735624
vt 0.580356 0.680951
vt 0.588379 0.684715
vt 0.581304 0.685112
vt 0.574699 0.687535
vt 0.589633 0.694715
vt 0.592444 0.708833
vt 0.591418 0.727249
vt 0.590241 0.728771
vt 0.588716 0.726020
vt 0.589119 0.729399
vt 0.588216 0.729250
vt 0.588453 0.724422
vt 0.585938 0.710075
vt 0.584656 0.702518
vt 0.588378 0.693816
vt 0.583067 0.693061
vt 0.588489 0.690340
vt 0.579454 0.711460
vt 0.577329 0.697125
vt 0.586676 0.728356
vt 0.577058 0.692573
vt 0.578317 0.695776
vt 0.587533 0.688203
vt 0.581878 0.687016
vt 0.577004 0.690317
vt 0.584323 0.700539
vt 0.528766 0.912507
vt 0.540444 0.912789
vt 0.540457 0.914927
vt 0.518818 0.905442
vt 0.529510 0.910529
vt 0.509700 0.882215
vt 0.513764 0.870380
vt 0.511681 0.882197
vt 0.568447 0.869086
vt 0.568842 0.881686
vt 0.566614 0.869914
vt 0.552108 0.912313
vt 0.560564 0.903580
vt 0.561965 0.905081
vt 0.512124 0.894806
vt 0.520205 0.903923
vt 0.561767 0.858443
vt 0.551045 0.853375
vt 0.551795 0.851393
vt 0.570824 0.881654
vt 0.566709 0.893519
vt 0.540066 0.849037
vt 0.529131 0.853575
vt 0.528359 0.851603
vt 0.560366 0.859968
vt 0.518476 0.858823
vt 0.511924 0.869577
vt 0.540077 0.851159
vt 0.551343 0.910344
vt 0.513944 0.893975
vt 0.519891 0.860326
vt 0.568536 0.894325
s 1
usemtl Material
f 3/1/1 8/2/2 4/3/3
f 132/4/4 6/5/5 2/6/6
f 2/6/6 7/7/7 3/1/1
f 131/8/8 10/9/9 6/5/5
f 7/7/7 10/9/9 11/10/10
f 8/2/2 11/10/10 12/11/11
f 133/12/12 14/13/13 10/9/9
f 11/10/10 14/13/13 15/14/14
f 11/10/10 16/15/15 12/11/11
f 15/14/14 18/16/16 19/17/17
f 15/14/14 20/18/18 16/15/15
f 134/19/19 18/16/16 14/13/13
f 135/20/20 22/21/21 18/16/16
f 19/17/17 22/21/21 23/22/22
f 19/17/17 24/23/23 20/18/18
f 23/22/22 28/24/24 24/23/23
f 136/25/25 26/26/26 22/21/21
f 23/22/22 26/26/26 27/27/27
f 137/28/28 30/29/29 26/26/26
f 26/26/26 31/30/30 27/27/27
f 28/24/24 31/30/30 32/31/31
f 138/32/32 34/33/33 30/29/29
f 30/29/29 35/34/34 31/30/30
f 32/31/31 35/34/34 36/35/35
f 35/34/34 40/36/36 36/35/35
f 34/33/33 140/37/37 38/38/38
f 35/34/34 38/38/38 39/39/39
f 38/38/38 141/40/40 42/41/41
f 39/39/39 42/41/41 43/42/42
f 39/39/39 44/43/43 40/36/36
f 42/41/41 142/44/44 46/45/45
f 42/41/41 47/46/46 43/42/42
f 44/43/43 47/46/46 48/47/47
f 48/47/47 51/48/48 52/49/49
f 46/45/45 143/50/50 50/51/51
f 46/45/45 51/48/48 47/46/46
f 50/51/51 144/52/52 54/53/53
f 50/51/51 55/54/54 51/48/48
f 52/49/49 55/54/54 56/55/55
f 54/53/53 145/56/56 58/57/57
f 54/53/53 59/58/58 55/54/54
f 56/55/55 59/58/58 60/59/59
f 58/57/57 63/60/60 59/58/58
f 59/58/58 64/61/61 60/59/59
f 58/57/57 146/62/62 62/63/63
f 62/63/63 132/4/4 2/6/6
f 62/63/63 3/1/1 63/60/60
f 64/61/61 3/1/1 4/3/3
f 148/64/64 21/25/64 153/65/64
f 45/44/64 150/66/64 152/67/64
f 57/56/64 152/67/64 154/68/64
f 37/37/64 150/66/64 41/40/64
f 148/64/64 29/32/64 25/28/64
f 13/19/64 155/69/64 153/65/64
f 155/69/64 5/8/64 159/70/64
f 61/62/64 154/68/64 158/71/64
f 159/70/64 1/4/64 161/72/64
f 1/4/64 158/71/64 161/72/64
f 49/50/64 152/67/64 53/52/64
f 17/20/64 153/65/64 21/25/64
f 33/73/64 157/74/64 163/75/64
f 156/76/64 33/73/64 163/75/64
f 147/77/65 71/65/66 83/78/67
f 83/78/67 69/69/68 82/79/69
f 82/79/69 75/70/70 84/80/71
f 78/81/64 90/82/72 89/83/73
f 82/79/69 78/81/64 77/84/64
f 83/78/67 77/84/64 79/85/74
f 83/78/67 162/86/75 147/77/65
f 92/87/76 91/88/77 93/89/78
f 162/86/75 87/90/79 160/91/80
f 77/84/64 87/90/79 79/85/74
f 78/81/64 86/92/81 77/84/64
f 160/91/80 72/67/82 151/66/83
f 87/90/79 70/68/84 72/67/82
f 85/91/85 94/93/86 95/94/87
f 86/92/81 76/71/88 70/68/84
f 65/72/89 84/80/71 75/70/70
f 89/83/73 65/72/89 76/71/88
f 97/95/90 91/88/77 96/96/91
f 98/97/92 91/88/77 94/93/86
f 81/77/93 93/89/78 67/64/94
f 95/94/87 91/88/77 88/98/95
f 73/74/96 96/96/91 66/75/97
f 67/64/94 97/95/90 73/74/96
f 68/66/98 98/97/92 94/93/86
f 66/75/97 98/97/92 74/76/99
f 81/77/93 88/98/95 92/87/76
f 85/91/85 88/98/95 80/86/100
f 99/99/101 124/100/102 108/101/102
f 107/102/103 115/103/101 99/99/101
f 114/104/104 121/105/105 130/106/104
f 102/107/106 126/108/107 118/109/106
f 100/110/108 125/111/109 109/112/109
f 106/113/110 123/114/103 107/102/103
f 111/115/111 119/116/112 103/117/112
f 110/118/107 117/119/113 126/108/107
f 112/120/114 120/121/115 104/122/115
f 111/115/111 118/109/106 127/123/111
f 113/124/116 121/105/105 105/125/105
f 103/117/112 128/126/114 112/120/114
f 108/101/102 116/127/117 100/110/108
f 114/104/104 122/128/110 106/113/110
f 113/124/116 120/121/115 129/129/116
f 101/130/113 125/111/109 117/119/113
f 3/1/1 7/7/7 8/2/2
f 132/4/4 131/8/8 6/5/5
f 2/6/6 6/5/5 7/7/7
f 131/8/8 133/12/12 10/9/9
f 7/7/7 6/5/5 10/9/9
f 8/2/2 7/7/7 11/10/10
f 133/12/12 134/19/19 14/13/13
f 11/10/10 10/9/9 14/13/13
f 11/10/10 15/14/14 16/15/15
f 15/14/14 14/13/13 18/16/16
f 15/14/14 19/17/17 20/18/18
f 134/19/19 135/20/20 18/16/16
f 135/20/20 136/25/25 22/21/21
f 19/17/17 18/16/16 22/21/21
f 19/17/17 23/22/22 24/23/23
f 23/22/22 27/27/27 28/24/24
f 136/25/25 137/28/28 26/26/26
f 23/22/22 22/21/21 26/26/26
f 137/28/28 138/32/32 30/29/29
f 26/26/26 30/29/29 31/30/30
f 28/24/24 27/27/27 31/30/30
f 138/32/32 139/73/118 34/33/33
f 30/29/29 34/33/33 35/34/34
f 32/31/31 31/30/30 35/34/34
f 35/34/34 39/39/39 40/36/36
f 34/33/33 139/73/118 140/37/37
f 35/34/34 34/33/33 38/38/38
f 38/38/38 140/37/37 141/40/40
f 39/39/39 38/38/38 42/41/41
f 39/39/39 43/42/42 44/43/43
f 42/41/41 141/40/40 142/44/44
f 42/41/41 46/45/45 47/46/46
f 44/43/43 43/42/42 47/46/46
f 48/47/47 47/46/46 51/48/48
f 46/45/45 142/44/44 143/50/50
f 46/45/45 50/51/51 51/48/48
f 50/51/51 143/50/50 144/52/52
f 50/51/51 54/53/53 55/54/54
f 52/49/49 51/48/48 55/54/54
f 54/53/53 144/52/52 145/56/56
f 54/53/53 58/57/57 59/58/58
f 56/55/55 55/54/54 59/58/58
f 58/57/57 62/63/63 63/60/60
f 59/58/58 63/60/60 64/61/61
f 58/57/57 145/56/56 146/62/62
f 62/63/63 146/62/62 132/4/4
f 62/63/63 2/6/6 3/1/1
f 64/61/61 63/60/60 3/1/1
f 148/64/64 25/28/64 21/25/64
f 45/44/64 41/40/64 150/66/64
f 57/56/64 53/52/64 152/67/64
f 37/37/64 156/76/64 150/66/64
f 148/64/64 157/74/64 29/32/64
f 13/19/64 9/12/64 155/69/64
f 155/69/64 9/12/64 5/8/64
f 61/62/64 57/56/64 154/68/64
f 159/70/64 5/8/64 1/4/64
f 1/4/64 61/62/64 158/71/64
f 49/50/64 45/44/64 152/67/64
f 17/20/64 13/19/64 153/65/64
f 33/73/64 29/32/64 157/74/64
f 156/76/64 37/37/64 33/73/64
f 147/77/65 149/64/119 71/65/66
f 83/78/67 71/65/66 69/69/68
f 82/79/69 69/69/68 75/70/70
f 78/81/64 84/80/71 90/82/72
f 82/79/69 84/80/71 78/81/64
f 83/78/67 82/79/69 77/84/64
f 83/78/67 79/85/74 162/86/75
f 92/87/76 88/98/95 91/88/77
f 162/86/75 79/85/74 87/90/79
f 77/84/64 86/92/81 87/90/79
f 78/81/64 89/83/73 86/92/81
f 160/91/80 87/90/79 72/67/82
f 87/90/79 86/92/81 70/68/84
f 85/91/85 68/66/98 94/93/86
f 86/92/81 89/83/73 76/71/88
f 65/72/89 90/82/72 84/80/71
f 89/83/73 90/82/72 65/72/89
f 97/95/90 93/89/78 91/88/77
f 98/97/92 96/96/91 91/88/77
f 81/77/93 92/87/76 93/89/78
f 95/94/87 94/93/86 91/88/77
f 73/74/96 97/95/90 96/96/91
f 67/64/94 93/89/78 97/95/90
f 68/66/98 74/76/99 98/97/92
f 66/75/97 96/96/91 98/97/92
f 81/77/93 80/86/100 88/98/95
f 85/91/85 95/94/87 88/98/95
f 99/99/101 115/103/101 124/100/102
f 107/102/103 123/114/103 115/103/101
f 114/104/104 105/125/105 121/105/105
f 102/107/106 110/118/107 126/108/107
f 100/110/108 116/127/117 125/111/109
f 106/113/110 122/128/110 123/114/103
f 111/115/111 127/123/111 119/116/112
f 110/118/107 101/130/113 117/119/113
f 112/120/114 128/126/114 120/121/115
f 111/115/111 102/107/106 118/109/106
f 113/124/116 129/129/116 121/105/105
f 103/117/112 119/116/112 128/126/114
f 108/101/102 124/100/102 116/127/117
f 114/104/104 130/106/104 122/128/110
f 113/124/116 104/122/115 120/121/115
f 101/130/113 109/112/109 125/111/109
